# xmcd CD database file
#
# Track frame offsets:
#	150
#	12735
#	25665
#	38562
#	50490
#	62690
#	73260
#	86235
#	99062
#	112172
#	124860
#	136902
#	151037
#	162942
#	176207
#	187817
#	201537
#	212092
#	222970
#	236095
#	252722
#	271935
#
# Disc length: 3894 seconds
#
# Revision: 0
# Processed by: cddbd v1.5.1PL0 Copyright (c) Steve Scherf et al.
# Submitted via: CDex 1.51
#
DISCID=460f3416
DTITLE=JIMMY REED - I'M JIMMY REED/JUST JIMMY REED
DYEAR=1990
DGENRE=Blues
TTITLE0=HONEST I DO
TTITLE1=GO ON TO SCHOOL
TTITLE2=MY FIRST PLEA
TTITLE3=BOOGIE IN THE DARK
TTITLE4=YOU GOT ME CRYING
TTITLE5=AIN'T THAT LOVIN' YOU, BABY
TTITLE6=YOU GOT ME DIZZY
TTITLE7=LITTLE RAIN
TTITLE8=CAN'T STAND TO SEE YOU GO
TTITLE9=ROLL AND RHUMBA
TTITLE10=YOU'RE SOMETHING ELSE
TTITLE11=YOU DON'T HAVE TO GO
TTITLE12=I'LL CHANGE MY STYLE
TTITLE13=LET'S GET TOGETHER
TTITLE14=GOOD LOVER
TTITLE15=TAKE IT SLOW
TTITLE16=TOO MUCH
TTITLE17=IN THE MORNING
TTITLE18=OH JOHN
TTITLE19=BACK HOME AT NOON
TTITLE20=KANSAS CITY BABY
TTITLE21=YOU CAN'T HIDE
EXTD=YEAR: 1990
EXTT0=
EXTT1=
EXTT2=
EXTT3=
EXTT4=
EXTT5=
EXTT6=
EXTT7=
EXTT8=
EXTT9=
EXTT10=
EXTT11=
EXTT12=
EXTT13=
EXTT14=
EXTT15=
EXTT16=
EXTT17=
EXTT18=
EXTT19=
EXTT20=
EXTT21=
PLAYORDER=
